<svg width="99" height="17" viewBox="0 0 99 17" fill="none" xmlns="http://www.w3.org/2000/svg">
<path d="M89.6597 2.01554C89.1934 3.13037 88.6261 4.48735 88.3985 5.03221C88.1724 5.57559 87.9814 6.02595 87.9814 6.02595C87.9814 6.02595 87.5488 6.06287 87.0236 6.10273C86.4997 6.1426 85.5433 6.21495 84.8987 6.26368C84.254 6.31388 83.372 6.38033 82.9395 6.41282C82.5069 6.4453 82.1179 6.47631 82.0757 6.48074L81.9999 6.4896L82.0687 6.559C82.108 6.59591 82.5406 7.00197 83.0293 7.46119C83.5195 7.92041 84.1613 8.52138 84.4563 8.7975C86.2357 10.466 86.6472 10.8514 86.664 10.8647C86.6879 10.8839 86.768 10.5281 85.9028 14.2092C85.5433 15.7389 85.2526 16.9999 85.2526 16.9999C85.2526 16.9999 86.473 16.2631 87.9603 15.3506C89.4462 14.4381 90.6723 13.6939 90.685 13.6968C90.6962 13.6998 91.2439 14.0541 91.8998 14.4824C92.5571 14.912 93.536 15.5514 94.0767 15.9043C94.6174 16.2572 95.2157 16.6485 95.4067 16.7725C95.5963 16.8981 95.762 16.9999 95.762 16.9999C95.762 16.9999 95.7677 16.9748 95.762 16.9438C95.7536 16.8936 95.1848 14.1427 94.6722 11.6754C94.55 11.0818 94.4489 10.5856 94.4489 10.5724C94.4489 10.5532 95.3604 9.74104 98.658 6.81888C99.0204 6.49846 99.0246 6.49403 98.981 6.48369C98.9557 6.47779 97.5611 6.33013 95.8814 6.15441C94.2017 5.9787 92.8141 5.82957 92.7973 5.82218C92.7762 5.81332 92.7102 5.65828 92.5178 5.16362C92.3801 4.80629 91.9391 3.66784 91.5389 2.63276C91.1386 1.59767 90.7468 0.583254 90.6681 0.380962C90.5895 0.177193 90.5221 0.00738525 90.5164 1.90735e-06C90.5122 -0.00590515 90.126 0.900721 89.6597 2.01554Z" fill="#6C6845"/>
<path d="M89.6597 2.01554C89.1934 3.13037 88.6261 4.48735 88.3985 5.03221C88.1724 5.57559 87.9814 6.02595 87.9814 6.02595C87.9814 6.02595 87.5488 6.06287 87.0236 6.10273C86.4997 6.1426 85.5433 6.21495 84.8987 6.26368C84.254 6.31388 83.372 6.38033 82.9395 6.41282C82.5069 6.4453 82.1179 6.47631 82.0757 6.48074L81.9999 6.4896L82.0687 6.559C82.108 6.59591 82.5406 7.00197 83.0293 7.46119C83.5195 7.92041 84.1613 8.52138 84.4563 8.7975C86.2357 10.466 86.6472 10.8514 86.664 10.8647C86.6879 10.8839 86.768 10.5281 85.9028 14.2092C85.5433 15.7389 85.2526 16.9999 85.2526 16.9999C85.2526 16.9999 86.473 16.2631 87.9603 15.3506C89.4462 14.4381 90.6723 13.6939 90.685 13.6968C90.6962 13.6998 91.2439 14.0541 91.8998 14.4824C92.5571 14.912 93.536 15.5514 94.0767 15.9043C94.6174 16.2572 95.2157 16.6485 95.4067 16.7725C95.5963 16.8981 95.762 16.9999 95.762 16.9999C95.762 16.9999 95.7677 16.9748 95.762 16.9438C95.7536 16.8936 95.1848 14.1427 94.6722 11.6754C94.55 11.0818 94.4489 10.5856 94.4489 10.5724C94.4489 10.5532 95.3604 9.74104 98.658 6.81888C99.0204 6.49846 99.0246 6.49403 98.981 6.48369C98.9557 6.47779 97.5611 6.33013 95.8814 6.15441C94.2017 5.9787 92.8141 5.82957 92.7973 5.82218C92.7762 5.81332 92.7102 5.65828 92.5178 5.16362C92.3801 4.80629 91.9391 3.66784 91.5389 2.63276C91.1386 1.59767 90.7468 0.583254 90.6681 0.380962C90.5895 0.177193 90.5221 0.00738525 90.5164 1.90735e-06C90.5122 -0.00590515 90.126 0.900721 89.6597 2.01554Z" fill="white" fill-opacity="0.6"/>
<path d="M68.6597 2.01554C68.1934 3.13037 67.6261 4.48735 67.3985 5.03221C67.1724 5.57559 66.9814 6.02595 66.9814 6.02595C66.9814 6.02595 66.5488 6.06287 66.0236 6.10273C65.4997 6.1426 64.5433 6.21495 63.8987 6.26368C63.254 6.31388 62.372 6.38033 61.9395 6.41282C61.5069 6.4453 61.1179 6.47631 61.0757 6.48074L60.9999 6.4896L61.0687 6.559C61.108 6.59591 61.5406 7.00197 62.0293 7.46119C62.5195 7.92041 63.1613 8.52138 63.4563 8.7975C65.2357 10.466 65.6472 10.8514 65.664 10.8647C65.6879 10.8839 65.768 10.5281 64.9028 14.2092C64.5433 15.7389 64.2526 16.9999 64.2526 16.9999C64.2526 16.9999 65.473 16.2631 66.9603 15.3506C68.4462 14.4381 69.6723 13.6939 69.685 13.6968C69.6962 13.6998 70.2439 14.0541 70.8998 14.4824C71.5571 14.912 72.536 15.5514 73.0767 15.9043C73.6174 16.2572 74.2157 16.6485 74.4067 16.7725C74.5963 16.8981 74.762 16.9999 74.762 16.9999C74.762 16.9999 74.7677 16.9748 74.762 16.9438C74.7536 16.8936 74.1848 14.1427 73.6722 11.6754C73.55 11.0818 73.4489 10.5856 73.4489 10.5724C73.4489 10.5532 74.3604 9.74104 77.658 6.81888C78.0204 6.49846 78.0246 6.49403 77.981 6.48369C77.9557 6.47779 76.5611 6.33013 74.8814 6.15441C73.2017 5.9787 71.8141 5.82957 71.7973 5.82218C71.7762 5.81332 71.7102 5.65828 71.5178 5.16362C71.3801 4.80629 70.9391 3.66784 70.5389 2.63276C70.1386 1.59767 69.7468 0.583254 69.6681 0.380962C69.5895 0.177193 69.5221 0.00738525 69.5164 1.90735e-06C69.5122 -0.00590515 69.126 0.900721 68.6597 2.01554Z" fill="#6C6845"/>
<path d="M68.6597 2.01554C68.1934 3.13037 67.6261 4.48735 67.3985 5.03221C67.1724 5.57559 66.9814 6.02595 66.9814 6.02595C66.9814 6.02595 66.5488 6.06287 66.0236 6.10273C65.4997 6.1426 64.5433 6.21495 63.8987 6.26368C63.254 6.31388 62.372 6.38033 61.9395 6.41282C61.5069 6.4453 61.1179 6.47631 61.0757 6.48074L60.9999 6.4896L61.0687 6.559C61.108 6.59591 61.5406 7.00197 62.0293 7.46119C62.5195 7.92041 63.1613 8.52138 63.4563 8.7975C65.2357 10.466 65.6472 10.8514 65.664 10.8647C65.6879 10.8839 65.768 10.5281 64.9028 14.2092C64.5433 15.7389 64.2526 16.9999 64.2526 16.9999C64.2526 16.9999 65.473 16.2631 66.9603 15.3506C68.4462 14.4381 69.6723 13.6939 69.685 13.6968C69.6962 13.6998 70.2439 14.0541 70.8998 14.4824C71.5571 14.912 72.536 15.5514 73.0767 15.9043C73.6174 16.2572 74.2157 16.6485 74.4067 16.7725C74.5963 16.8981 74.762 16.9999 74.762 16.9999C74.762 16.9999 74.7677 16.9748 74.762 16.9438C74.7536 16.8936 74.1848 14.1427 73.6722 11.6754C73.55 11.0818 73.4489 10.5856 73.4489 10.5724C73.4489 10.5532 74.3604 9.74104 77.658 6.81888C78.0204 6.49846 78.0246 6.49403 77.981 6.48369C77.9557 6.47779 76.5611 6.33013 74.8814 6.15441C73.2017 5.9787 71.8141 5.82957 71.7973 5.82218C71.7762 5.81332 71.7102 5.65828 71.5178 5.16362C71.3801 4.80629 70.9391 3.66784 70.5389 2.63276C70.1386 1.59767 69.7468 0.583254 69.6681 0.380962C69.5895 0.177193 69.5221 0.00738525 69.5164 1.90735e-06C69.5122 -0.00590515 69.126 0.900721 68.6597 2.01554Z" fill="white" fill-opacity="0.6"/>
<path d="M7.65972 2.01548C7.19345 3.1303 6.62605 4.48729 6.39853 5.03215C6.17242 5.57553 5.98141 6.02589 5.98141 6.02589C5.98141 6.02589 5.54884 6.0628 5.02358 6.10267C4.49972 6.14254 3.54329 6.21489 2.89865 6.26362C2.25401 6.31382 1.37202 6.38027 0.939452 6.41276C0.506883 6.44524 0.117851 6.47625 0.075718 6.48068L-0.00012207 6.48954L0.0686958 6.55894C0.10802 6.59585 0.540589 7.00191 1.02934 7.46113C1.51949 7.92035 2.16132 8.52132 2.45625 8.79744C4.23569 10.466 4.64719 10.8514 4.66404 10.8647C4.68792 10.8839 4.76797 10.528 3.90283 14.2091C3.54329 15.7389 3.25257 16.9999 3.25257 16.9999C3.25257 16.9999 4.47304 16.2631 5.96034 15.3505C7.44625 14.438 8.67233 13.6938 8.68497 13.6968C8.6962 13.6997 9.24394 14.0541 9.89981 14.4823C10.5571 14.912 11.536 15.5513 12.0767 15.9043C12.6174 16.2572 13.2157 16.6485 13.4067 16.7725C13.5963 16.898 13.762 16.9999 13.762 16.9999C13.762 16.9999 13.7677 16.9748 13.762 16.9438C13.7536 16.8936 13.1848 14.1427 12.6722 11.6753C12.55 11.0817 12.4489 10.5856 12.4489 10.5723C12.4489 10.5531 13.3604 9.74098 16.658 6.81882C17.0204 6.4984 17.0246 6.49397 16.981 6.48363C16.9557 6.47773 15.5611 6.33007 13.8814 6.15435C12.2017 5.97864 10.8141 5.8295 10.7973 5.82212C10.7762 5.81326 10.7102 5.65822 10.5178 5.16356C10.3801 4.80623 9.93914 3.66778 9.53887 2.6327C9.13861 1.59761 8.74676 0.583193 8.66811 0.380901C8.58947 0.177132 8.52205 0.00732422 8.51644 -5.91278e-05C8.51222 -0.00596619 8.126 0.90066 7.65972 2.01548Z" fill="#CDBC1E"/>
<path d="M48.6597 2.01548C48.1934 3.1303 47.6261 4.48729 47.3985 5.03215C47.1724 5.57553 46.9814 6.02589 46.9814 6.02589C46.9814 6.02589 46.5488 6.0628 46.0236 6.10267C45.4997 6.14254 44.5433 6.21489 43.8987 6.26362C43.254 6.31382 42.372 6.38027 41.9395 6.41276C41.5069 6.44524 41.1179 6.47625 41.0757 6.48068L40.9999 6.48954L41.0687 6.55894C41.108 6.59585 41.5406 7.00191 42.0293 7.46113C42.5195 7.92035 43.1613 8.52132 43.4563 8.79744C45.2357 10.466 45.6472 10.8514 45.664 10.8647C45.6879 10.8839 45.768 10.528 44.9028 14.2091C44.5433 15.7389 44.2526 16.9999 44.2526 16.9999C44.2526 16.9999 45.473 16.2631 46.9603 15.3505C48.4462 14.438 49.6723 13.6938 49.685 13.6968C49.6962 13.6997 50.2439 14.0541 50.8998 14.4823C51.5571 14.912 52.536 15.5513 53.0767 15.9043C53.6174 16.2572 54.2157 16.6485 54.4067 16.7725C54.5963 16.898 54.762 16.9999 54.762 16.9999C54.762 16.9999 54.7677 16.9748 54.762 16.9438C54.7536 16.8936 54.1848 14.1427 53.6722 11.6753C53.55 11.0817 53.4489 10.5856 53.4489 10.5723C53.4489 10.5531 54.3604 9.74098 57.658 6.81882C58.0204 6.4984 58.0246 6.49397 57.981 6.48363C57.9557 6.47773 56.5611 6.33007 54.8814 6.15435C53.2017 5.97864 51.8141 5.8295 51.7973 5.82212C51.7762 5.81326 51.7102 5.65822 51.5178 5.16356C51.3801 4.80623 50.9391 3.66778 50.5389 2.6327C50.1386 1.59761 49.7468 0.583193 49.6681 0.380901C49.5895 0.177132 49.5221 0.00732422 49.5164 -5.91278e-05C49.5122 -0.00596619 49.126 0.90066 48.6597 2.01548Z" fill="#CDBC1E"/>
<path d="M27.6597 2.01554C27.1934 3.13037 26.6261 4.48735 26.3985 5.03221C26.1724 5.57559 25.9814 6.02595 25.9814 6.02595C25.9814 6.02595 25.5488 6.06287 25.0236 6.10273C24.4997 6.1426 23.5433 6.21495 22.8987 6.26368C22.254 6.31388 21.372 6.38033 20.9395 6.41282C20.5069 6.4453 20.1179 6.47631 20.0757 6.48074L19.9999 6.4896L20.0687 6.559C20.108 6.59591 20.5406 7.00197 21.0293 7.46119C21.5195 7.92041 22.1613 8.52138 22.4563 8.7975C24.2357 10.466 24.6472 10.8514 24.664 10.8647C24.6879 10.8839 24.768 10.5281 23.9028 14.2092C23.5433 15.7389 23.2526 16.9999 23.2526 16.9999C23.2526 16.9999 24.473 16.2631 25.9603 15.3506C27.4462 14.4381 28.6723 13.6939 28.685 13.6968C28.6962 13.6998 29.2439 14.0541 29.8998 14.4824C30.5571 14.912 31.536 15.5514 32.0767 15.9043C32.6174 16.2572 33.2157 16.6485 33.4067 16.7725C33.5963 16.8981 33.762 16.9999 33.762 16.9999C33.762 16.9999 33.7677 16.9748 33.762 16.9438C33.7536 16.8936 33.1848 14.1427 32.6722 11.6754C32.55 11.0818 32.4489 10.5856 32.4489 10.5724C32.4489 10.5532 33.3604 9.74104 36.658 6.81888C37.0204 6.49846 37.0246 6.49403 36.981 6.48369C36.9557 6.47779 35.5611 6.33013 33.8814 6.15441C32.2017 5.9787 30.8141 5.82957 30.7973 5.82218C30.7762 5.81332 30.7102 5.65828 30.5178 5.16362C30.3801 4.80629 29.9391 3.66784 29.5389 2.63276C29.1386 1.59767 28.7468 0.583254 28.6681 0.380962C28.5895 0.177193 28.5221 0.00738525 28.5164 1.90735e-06C28.5122 -0.00590515 28.126 0.900721 27.6597 2.01554Z" fill="#CDBC1E"/>
</svg>
